P3
3 2
255
92 120 70
70 92 120
48 48 92
120 48 48
32 92 120
48 48 92
